<?xml version="1.0" standalone="no"?>
<!DOCTYPE svg PUBLIC "-//W3C//DTD SVG 20010904//EN"
 "http://www.w3.org/TR/2001/REC-SVG-20010904/DTD/svg10.dtd">
<svg version="1.0" xmlns="http://www.w3.org/2000/svg"
 width="157.000000pt" height="154.000000pt" viewBox="0 0 157.000000 154.000000"
 preserveAspectRatio="xMidYMid meet">

<g transform="translate(0.000000,154.000000) scale(0.100000,-0.100000)"
fill="#000000" stroke="none">
<path d="M585 1510 c-94 -26 -217 -89 -292 -150 -117 -96 -221 -262 -257 -411
-20 -84 -21 -272 -1 -357 69 -290 301 -515 598 -579 114 -24 288 -13 399 24
248 85 430 278 504 533 15 50 19 97 18 205 0 124 -3 149 -27 220 -42 126 -100
219 -191 310 -93 93 -170 143 -288 187 -78 30 -93 32 -238 35 -129 2 -167 0
-225 -17z m-322 -520 c20 -23 27 -40 27 -73 -1 -86 -82 -132 -160 -92 -37 19
-50 43 -50 93 0 101 116 146 183 72z m190 9 c23 -29 22 -45 -8 -74 -16 -17
-35 -25 -60 -25 -35 0 -35 0 -35 -45 0 -25 -4 -45 -10 -45 -6 0 -10 44 -10
111 l0 112 53 -7 c35 -4 58 -14 70 -27z m157 22 c0 -6 -19 -11 -42 -13 -42 -3
-43 -4 -46 -40 l-3 -38 40 0 c23 0 41 -4 41 -10 0 -5 -18 -10 -40 -10 l-40 0
0 -40 0 -40 45 0 c25 0 45 -4 45 -10 0 -5 -25 -10 -55 -10 l-55 0 0 103 c0 57
3 107 7 110 10 11 103 8 103 -2z m131 -93 l54 -82 3 92 c4 128 22 108 22 -24
0 -77 -3 -104 -12 -104 -7 0 -39 40 -70 88 l-58 87 0 -88 c0 -67 -3 -88 -12
-85 -14 5 -24 177 -13 206 8 21 25 4 86 -90z m-541 -188 c0 -5 -20 -10 -45
-10 l-45 0 0 -40 c0 -39 1 -40 38 -42 l37 -1 -37 -4 -38 -4 0 -50 c0 -27 -4
-49 -10 -49 -6 0 -10 42 -10 105 l0 105 55 0 c30 0 55 -4 55 -10z m140 0 c0
-5 -21 -10 -46 -10 l-45 0 3 -37 c3 -36 5 -38 43 -44 l40 -5 -40 -5 c-39 -4
-40 -5 -40 -44 0 -40 0 -40 45 -46 l45 -6 -57 -1 -58 -2 0 105 0 105 55 0 c30
0 55 -4 55 -10z m150 0 c0 -5 -19 -10 -42 -10 l-43 0 1 -37 c1 -36 3 -38 40
-42 l39 -5 -39 -5 c-38 -6 -39 -7 -39 -46 l0 -40 41 0 c23 0 42 -3 42 -7 0 -5
-25 -8 -55 -8 l-55 0 0 105 0 105 55 0 c30 0 55 -4 55 -10z m169 -4 c58 -30
69 -119 22 -167 -26 -26 -36 -29 -90 -29 l-61 0 0 105 0 105 50 0 c28 0 63 -6
79 -14z m211 -6 c25 -25 25 -46 0 -67 -19 -17 -19 -17 0 -30 24 -17 26 -50 3
-75 -12 -13 -30 -18 -70 -18 l-53 0 0 105 0 105 50 0 c37 0 55 -5 70 -20z
m194 -81 c40 -113 40 -109 26 -109 -5 0 -12 11 -16 25 -6 22 -11 25 -55 25
-43 0 -51 -3 -61 -25 -9 -21 -28 -35 -28 -21 0 23 75 206 85 206 7 0 29 -45
49 -101z m253 75 c32 -32 23 -43 -13 -15 -36 28 -91 28 -121 -1 -26 -25 -32
-91 -9 -120 27 -37 101 -43 127 -12 6 8 19 14 28 14 12 -1 9 -7 -12 -25 -59
-52 -166 -19 -181 55 -7 39 14 92 45 114 37 26 105 21 136 -10z m93 -21 l0
-47 50 49 c27 27 52 47 54 44 3 -3 -15 -29 -41 -58 l-46 -52 49 -50 c32 -32
43 -49 32 -49 -9 0 -35 21 -57 48 l-41 47 0 -47 c0 -27 -4 -48 -10 -48 -6 0
-10 42 -10 105 0 63 4 105 10 105 6 0 10 -21 10 -47z"/>
<path d="M145 998 c-52 -28 -63 -101 -20 -143 54 -55 145 -16 145 60 0 67 -70
114 -125 83z"/>
<path d="M350 965 c0 -44 1 -45 33 -45 37 0 51 8 60 33 9 25 -26 57 -63 57
-29 0 -30 -2 -30 -45z"/>
<path d="M560 639 l0 -92 43 7 c59 10 82 36 82 92 0 57 -28 84 -86 84 l-39 0
0 -91z"/>
<path d="M770 695 l0 -36 43 3 c39 3 42 5 42 33 0 28 -3 30 -42 33 l-43 3 0
-36z"/>
<path d="M770 594 l0 -47 42 7 c44 7 58 19 58 48 0 22 -30 38 -69 38 -30 0
-31 -1 -31 -46z"/>
<path d="M993 666 c-11 -31 -18 -58 -15 -61 7 -7 67 -7 74 1 5 4 -27 103 -36
112 -2 1 -12 -22 -23 -52z"/>
</g>
</svg>
